<?xml version="1.0" encoding="utf-8"?>
<!-- Generator: Adobe Illustrator 16.0.0, SVG Export Plug-In . SVG Version: 6.00 Build 0)  -->
<!DOCTYPE svg PUBLIC "-//W3C//DTD SVG 1.1//EN" "http://www.w3.org/Graphics/SVG/1.1/DTD/svg11.dtd">
<svg version="1.1" id="Layer_1" xmlns="http://www.w3.org/2000/svg" xmlns:xlink="http://www.w3.org/1999/xlink" x="0px" y="0px"
	 width="146px" height="143.667px" viewBox="0 0 146 143.667" enable-background="new 0 0 146 143.667" xml:space="preserve">
<g>
	<rect x="19.64" y="-253.16" fill="#B2222D" width="146" height="72"/>
	<text transform="matrix(1 0 0 1 21.2822 -138.644)" fill="#B2222D" font-family="'BBTreeTB'" font-size="58">MARYO</text>
	<rect x="198.64" y="-253.16" fill="#B2222D" width="146" height="146"/>
	<text transform="matrix(1 0 0 1 200.2822 -107.1602)" fill="#FFFFFF" font-family="'BBTreeGB'" font-size="42">MARYO</text>
	<rect x="366.64" y="-253.16" fill="#B2222D" width="146" height="108"/>
	<text transform="matrix(1 0 0 1 368.2827 -107.1602)" fill="#B2222D" font-family="'BBTreeGB'" font-size="42">MARYO</text>
</g>
<g>
	<rect x="-217.333" fill="#B2222D" width="146" height="108"/>
	<text transform="matrix(1 0 0 1 -219.8281 147.6665)" fill="#B2222D" font-family="'FranklinGothic-Heavy'" font-size="44">MARYO</text>
</g>
<g>
	<rect fill="#B2222D" width="146" height="108"/>
	<g>
		<path fill="#B2222D" d="M31.945,114.34v29.326h-8.357v-20.969l-5.425,20.969h-5.715l-5.64-20.969v20.969H0.062V114.34h11.763
			l4.254,15.576l4.061-15.576H31.945z"/>
		<path fill="#B2222D" d="M53.229,143.667l-1.658-5.779h-7.856l-1.761,5.779h-7.308L43.7,114.34h9.518l9.198,29.326H53.229z
			 M45.246,131.485h4.745l-2.373-8.507L45.246,131.485z"/>
		<path fill="#B2222D" d="M91.22,143.667h-9.979l-4.283-11.215h-2.839v11.215h-9.002V114.34h15.318c3.38,0,6.005,0.792,7.874,2.374
			c1.869,1.583,2.804,3.67,2.804,6.263c0,1.69-0.344,3.184-1.031,4.479c-0.688,1.296-2.077,2.438-4.168,3.427L91.22,143.667z
			 M74.119,126.178h3.846c1.131,0,2.041-0.236,2.729-0.709s1.031-1.167,1.031-2.084c0-1.876-1.153-2.814-3.459-2.814h-4.146V126.178
			z"/>
		<path fill="#B2222D" d="M118.94,114.34l-9.179,16.908v12.418h-8.744v-12.418L91.15,114.34H101l5.141,9.667l4.928-9.667H118.94z"/>
		<path fill="#B2222D" d="M131.826,144.118c-4.125,0-7.487-1.368-10.087-4.104c-2.6-2.735-3.899-6.395-3.899-10.979
			c0-4.383,1.242-8.003,3.728-10.86c2.485-2.857,5.933-4.286,10.345-4.286c4.082,0,7.408,1.347,9.979,4.039
			c2.571,2.693,3.856,6.288,3.856,10.785c0,4.655-1.296,8.386-3.889,11.193C139.266,142.714,135.922,144.118,131.826,144.118z
			 M131.783,137.458c1.518,0,2.61-0.662,3.276-1.987c0.666-1.325,0.999-3.749,0.999-7.272c0-5.099-1.368-7.648-4.104-7.648
			c-2.951,0-4.426,2.908-4.426,8.723C127.529,134.729,128.947,137.458,131.783,137.458z"/>
	</g>
</g>
</svg>
